HIERARCHY
ROOT Hips
{
	OFFSET 0.000000 121.760803 0.000000
	CHANNELS 6 Xposition Yposition Zposition Xrotation Yrotation Zrotation 
	JOINT Spine
	{
		OFFSET 0.072000 7.257294 -0.789700
		CHANNELS 3 Xrotation Yrotation Zrotation
		JOINT Spine1
		{
			OFFSET 0.000000 12.508769 -0.658067
			CHANNELS 3 Xrotation Yrotation Zrotation
			JOINT Spine1_split
			{
				OFFSET 0.000000 12.508769 -0.658067
				CHANNELS 3 Xrotation Yrotation Zrotation
				JOINT Spine2
				{
					OFFSET 0.000000 12.508769 -0.658067
					CHANNELS 3 Xrotation Yrotation Zrotation
					JOINT Neck
					{
						OFFSET 0.000000 14.033295 7.520400
						CHANNELS 3 Xrotation Yrotation Zrotation
						JOINT Head
						{
							OFFSET 0.000000 8.198502 5.703100
							CHANNELS 3 Xrotation Yrotation Zrotation
							JOINT HeadTop_End
							{
								OFFSET 0.000000 17.760803 13.332701
								CHANNELS 3 Xrotation Yrotation Zrotation
								End Site
								{
									OFFSET 0.000000 0.000000 0.000000
								}
							}
						}
					}
					JOINT LeftShoulder
					{
						OFFSET 6.292450 5.785301 -0.669000
						CHANNELS 3 Xrotation Yrotation Zrotation
						JOINT LeftShoulder_split
						{
							OFFSET 6.292450 5.785301 -0.669000
							CHANNELS 3 Xrotation Yrotation Zrotation
							JOINT LeftArm
							{
								OFFSET 13.907140 -6.093903 1.965100
								CHANNELS 3 Xrotation Yrotation Zrotation
								JOINT LeftForeArm
								{
									OFFSET 34.140198 0.000000 0.000000
									CHANNELS 3 Xrotation Yrotation Zrotation
									JOINT LeftHand
									{
										OFFSET 40.960209 0.000000 0.000000
										CHANNELS 3 Xrotation Yrotation Zrotation
										JOINT LeftHandThumb1
										{
											OFFSET 10.006996 -7.170425 9.573125
											CHANNELS 3 Xrotation Yrotation Zrotation
											JOINT LeftHandThumb2
											{
												OFFSET 1.835007 -1.059448 1.059443
												CHANNELS 3 Xrotation Yrotation Zrotation
												JOINT LeftHandThumb3
												{
													OFFSET 2.112267 -1.219513 1.219518
													CHANNELS 3 Xrotation Yrotation Zrotation
													JOINT LeftHandThumb4
													{
														OFFSET 4.843811 -2.796570 2.796576
														CHANNELS 3 Xrotation Yrotation Zrotation
														End Site
														{
															OFFSET 0.000000 0.000000 0.000000
														}
													}
												}
											}
										}
										JOINT LeftHandIndex1
										{
											OFFSET 18.389847 -0.922348 4.596882
											CHANNELS 3 Xrotation Yrotation Zrotation
											JOINT LeftHandIndex2
											{
												OFFSET 4.711273 0.000000 0.000000
												CHANNELS 3 Xrotation Yrotation Zrotation
												JOINT LeftHandIndex3
												{
													OFFSET 2.886131 0.000000 0.000000
													CHANNELS 3 Xrotation Yrotation Zrotation
													JOINT LeftHandIndex4
													{
														OFFSET 6.145912 0.000000 0.000000
														CHANNELS 3 Xrotation Yrotation Zrotation
														End Site
														{
															OFFSET 0.000000 0.000000 0.000000
														}
													}
												}
											}
										}
										JOINT LeftHandMiddle1
										{
											OFFSET 18.013008 0.000000 0.000000
											CHANNELS 3 Xrotation Yrotation Zrotation
											JOINT LeftHandMiddle2
											{
												OFFSET 4.946693 0.000000 0.000000
												CHANNELS 3 Xrotation Yrotation Zrotation
												JOINT LeftHandMiddle3
												{
													OFFSET 3.342232 0.000000 0.000000
													CHANNELS 3 Xrotation Yrotation Zrotation
													JOINT LeftHandMiddle4
													{
														OFFSET 4.461754 0.000000 0.000000
														CHANNELS 3 Xrotation Yrotation Zrotation
														End Site
														{
															OFFSET 0.000000 0.000000 0.000000
														}
													}
												}
											}
										}
										JOINT LeftHandRing1
										{
											OFFSET 15.849892 -0.102921 -4.126150
											CHANNELS 3 Xrotation Yrotation Zrotation
											JOINT LeftHandRing2
											{
												OFFSET 3.527054 0.000000 0.000000
												CHANNELS 3 Xrotation Yrotation Zrotation
												JOINT LeftHandRing3
												{
													OFFSET 2.961098 0.000000 0.000000
													CHANNELS 3 Xrotation Yrotation Zrotation
													JOINT LeftHandRing4
													{
														OFFSET 4.927200 0.000000 0.000000
														CHANNELS 3 Xrotation Yrotation Zrotation
														End Site
														{
															OFFSET 0.000000 0.000000 0.000000
														}
													}
												}
											}
										}
										JOINT LeftHandPinky1
										{
											OFFSET 12.791824 -0.832031 -6.799156
											CHANNELS 3 Xrotation Yrotation Zrotation
											JOINT LeftHandPinky2
											{
												OFFSET 3.327133 0.000000 0.000000
												CHANNELS 3 Xrotation Yrotation Zrotation
												JOINT LeftHandPinky3
												{
													OFFSET 3.014900 0.000000 0.000000
													CHANNELS 3 Xrotation Yrotation Zrotation
													JOINT LeftHandPinky4
													{
														OFFSET 5.847786 0.000000 0.000000
														CHANNELS 3 Xrotation Yrotation Zrotation
														End Site
														{
															OFFSET 0.000000 0.000000 0.000000
														}
													}
												}
											}
										}
									}
								}
							}
						}
					}
					JOINT RightShoulder
					{
						OFFSET -6.292450 5.785301 -0.669000
						CHANNELS 3 Xrotation Yrotation Zrotation
						JOINT RightShoulder_split
						{
							OFFSET -6.292450 5.785301 -0.669000
							CHANNELS 3 Xrotation Yrotation Zrotation
							JOINT RightArm
							{
								OFFSET -13.907140 -6.093903 1.965100
								CHANNELS 3 Xrotation Yrotation Zrotation
								JOINT RightForeArm
								{
									OFFSET -34.140198 0.000000 0.000000
									CHANNELS 3 Xrotation Yrotation Zrotation
									JOINT RightHand
									{
										OFFSET -40.960209 0.000000 0.000000
										CHANNELS 3 Xrotation Yrotation Zrotation
										JOINT RightHandThumb1
										{
											OFFSET -10.007050 -7.170456 9.573117
											CHANNELS 3 Xrotation Yrotation Zrotation
											JOINT RightHandThumb2
											{
												OFFSET -1.835007 -1.059448 1.059443
												CHANNELS 3 Xrotation Yrotation Zrotation
												JOINT RightHandThumb3
												{
													OFFSET -2.112267 -1.219513 1.219518
													CHANNELS 3 Xrotation Yrotation Zrotation
													JOINT RightHandThumb4
													{
														OFFSET -4.843834 -2.796585 2.796590
														CHANNELS 3 Xrotation Yrotation Zrotation
														End Site
														{
															OFFSET 0.000000 0.000000 0.000000
														}
													}
												}
											}
										}
										JOINT RightHandIndex1
										{
											OFFSET -18.389870 -0.922424 4.596786
											CHANNELS 3 Xrotation Yrotation Zrotation
											JOINT RightHandIndex2
											{
												OFFSET -4.711273 0.000000 0.000000
												CHANNELS 3 Xrotation Yrotation Zrotation
												JOINT RightHandIndex3
												{
													OFFSET -2.886131 0.000000 0.000000
													CHANNELS 3 Xrotation Yrotation Zrotation
													JOINT RightHandIndex4
													{
														OFFSET -6.145920 0.000000 0.000000
														CHANNELS 3 Xrotation Yrotation Zrotation
														End Site
														{
															OFFSET 0.000000 0.000000 0.000000
														}
													}
												}
											}
										}
										JOINT RightHandMiddle1
										{
											OFFSET -18.013008 0.000000 0.000000
											CHANNELS 3 Xrotation Yrotation Zrotation
											JOINT RightHandMiddle2
											{
												OFFSET -4.946693 0.000000 0.000000
												CHANNELS 3 Xrotation Yrotation Zrotation
												JOINT RightHandMiddle3
												{
													OFFSET -3.342232 0.000000 0.000000
													CHANNELS 3 Xrotation Yrotation Zrotation
													JOINT RightHandMiddle4
													{
														OFFSET -4.461754 0.000000 0.000000
														CHANNELS 3 Xrotation Yrotation Zrotation
														End Site
														{
															OFFSET 0.000000 0.000000 0.000000
														}
													}
												}
											}
										}
										JOINT RightHandRing1
										{
											OFFSET -15.849876 -0.102936 -4.126237
											CHANNELS 3 Xrotation Yrotation Zrotation
											JOINT RightHandRing2
											{
												OFFSET -3.527054 0.000000 0.000000
												CHANNELS 3 Xrotation Yrotation Zrotation
												JOINT RightHandRing3
												{
													OFFSET -2.961098 0.000000 0.000000
													CHANNELS 3 Xrotation Yrotation Zrotation
													JOINT RightHandRing4
													{
														OFFSET -4.927200 0.000000 0.000000
														CHANNELS 3 Xrotation Yrotation Zrotation
														End Site
														{
															OFFSET 0.000000 0.000000 0.000000
														}
													}
												}
											}
										}
										JOINT RightHandPinky1
										{
											OFFSET -12.791786 -0.832077 -6.799222
											CHANNELS 3 Xrotation Yrotation Zrotation
											JOINT RightHandPinky2
											{
												OFFSET -3.327133 0.000000 0.000000
												CHANNELS 3 Xrotation Yrotation Zrotation
												JOINT RightHandPinky3
												{
													OFFSET -3.014900 0.000000 0.000000
													CHANNELS 3 Xrotation Yrotation Zrotation
													JOINT RightHandPinky4
													{
														OFFSET -5.847786 0.000000 0.000000
														CHANNELS 3 Xrotation Yrotation Zrotation
														End Site
														{
															OFFSET 0.000000 0.000000 0.000000
														}
													}
												}
											}
										}
									}
								}
							}
						}
					}
				}
			}
		}
	}
	JOINT LeftUpLeg
	{
		OFFSET 13.026900 -6.336304 -1.092800
		CHANNELS 3 Xrotation Yrotation Zrotation
		JOINT LeftLeg
		{
			OFFSET 0.524474 -46.096886 9.782700
			CHANNELS 3 Xrotation Yrotation Zrotation
			JOINT LeftFoot
			{
				OFFSET -0.524474 -53.427422 -12.948200
				CHANNELS 3 Xrotation Yrotation Zrotation
				JOINT LeftToeBase
				{
					OFFSET 0.192200 -14.009700 16.364100
					CHANNELS 3 Xrotation Yrotation Zrotation
					JOINT LeftToe_End
					{
						OFFSET -1.784700 -0.561700 9.474800
						CHANNELS 3 Xrotation Yrotation Zrotation
						End Site
						{
							OFFSET 0.000000 0.000000 0.000000
						}
					}
				}
			}
		}
	}
	JOINT RightUpLeg
	{
		OFFSET -12.883000 -6.336304 -1.092800
		CHANNELS 3 Xrotation Yrotation Zrotation
		JOINT RightLeg
		{
			OFFSET -0.524587 -46.096825 9.782800
			CHANNELS 3 Xrotation Yrotation Zrotation
			JOINT RightFoot
			{
				OFFSET 0.524587 -53.427383 -12.948300
				CHANNELS 3 Xrotation Yrotation Zrotation
				JOINT RightToeBase
				{
					OFFSET -0.192200 -14.009700 16.364100
					CHANNELS 3 Xrotation Yrotation Zrotation
					JOINT RightToe_End
					{
						OFFSET 1.784700 -0.561700 9.474800
						CHANNELS 3 Xrotation Yrotation Zrotation
						End Site
						{
							OFFSET 0.000000 0.000000 0.000000
						}
					}
				}
			}
		}
	}
}
MOTION
Frames: 4
Frame Time: 0.016667
13.123412 100.084610 -13.595833 55.091292 -6.849287 5.301068 6.438658 0.189661 -1.669834 15.063528 1.404745 -0.847226 0.000000 0.000000 0.000000 25.668457 1.557015 -0.177841 -24.368141 -0.913412 3.954657 -18.158077 5.659349 -4.296263 0.000001 -0.000000 0.000000 3.359793 -11.332871 0.850120 0.000000 0.000000 0.000000 -25.850598 -35.679703 -27.707653 -0.000027 -43.985267 -0.000002 -8.602283 -8.370913 31.241159 0.699759 -6.020105 19.223948 19.074669 26.512417 -1.026364 3.271074 -0.981137 3.963654 -0.000001 0.000001 0.000002 0.483448 4.482282 -23.673227 0.882586 3.094040 -31.835085 0.339546 1.967254 -19.583715 0.000000 0.000000 -0.000001 2.472066 8.725186 -25.286103 1.505500 3.921813 -41.988827 0.476282 2.315675 -23.241414 0.000000 0.000001 -0.000001 3.074515 8.498784 -34.787619 1.107464 3.429299 -35.785936 0.533264 2.443993 -24.613666 0.000001 -0.000003 0.000001 3.603263 12.761720 -45.581285 0.673761 2.729601 -27.725809 0.090000 1.024028 -10.045311 -0.000001 0.000002 0.000000 0.611284 31.893630 8.610638 0.000000 0.000000 0.000000 -33.996809 35.443771 11.882227 -0.000005 24.919399 0.000023 0.648384 -4.749871 3.169661 -0.201461 3.035686 -7.196435 8.074856 6.486995 -14.042701 4.117384 15.542678 -37.393551 0.000000 0.000001 -0.000002 -3.681014 8.703999 18.305351 0.000003 -0.000007 -0.000014 0.115851 -1.033393 12.793116 0.000001 -0.000001 -0.000004 -0.122560 9.697883 1.310625 0.695572 -2.450417 31.689837 0.176464 -1.271091 15.805859 0.000000 0.000003 -0.000001 -0.568131 7.106786 4.105431 0.435111 -1.967359 24.939891 0.261907 -1.541272 19.286846 -0.000001 -0.000003 -0.000000 -8.414110 -1.159767 -7.809533 0.946317 -2.816006 37.143679 0.177120 -1.273476 15.836137 -0.000003 -0.000003 0.000000 -91.576752 -7.003831 7.155010 48.924966 9.853707 -4.402687 -8.241809 14.035250 -4.602963 -6.672996 -0.000006 0.000002 -0.000000 0.000001 0.000000 -60.683512 7.088340 -6.416649 62.214103 2.571678 -4.932195 0.094557 -2.869738 5.438594 -16.757113 -0.000001 -0.000000 0.000004 -0.000000 -0.000000 
13.008561 101.049225 -13.196327 53.762581 -7.100289 5.320227 6.391446 -0.071747 -1.706759 14.959053 1.376009 -0.738084 0.000000 0.000000 0.000000 25.530281 1.548437 -0.069472 -24.070895 -0.806833 3.898661 -17.895405 6.094574 -4.244754 0.000001 0.000000 0.000000 3.327514 -11.257725 0.298058 0.000000 0.000000 0.000000 -24.534509 -35.097316 -28.877985 -0.000019 -43.052769 -0.000008 -8.185987 -8.336855 30.259049 0.699766 -6.020126 19.223948 19.074652 26.512448 -1.026332 3.271083 -0.981155 3.963648 -0.000001 0.000002 -0.000002 0.483156 4.482397 -23.673086 0.882592 3.094052 -31.835198 0.339546 1.967263 -19.583706 -0.000000 0.000001 -0.000002 2.472261 8.725270 -25.287799 1.505378 3.921688 -41.987130 0.476275 2.315674 -23.241428 0.000000 0.000001 0.000000 3.074708 8.498860 -34.789575 1.107351 3.429141 -35.783983 0.533255 2.443963 -24.613669 0.000000 0.000001 0.000001 3.603258 12.761713 -45.581285 0.673742 2.729594 -27.725811 0.090001 1.024043 -10.045306 -0.000001 -0.000001 0.000001 0.454108 31.771878 9.248694 0.000000 0.000000 0.000000 -33.054800 34.716868 13.055009 0.000003 24.898768 -0.000019 0.795427 -4.377386 5.700446 -0.201463 3.035684 -7.196426 8.074873 6.487011 -14.042714 4.094447 15.548647 -37.387854 -0.000000 0.000002 -0.000001 -3.681005 8.703990 18.305346 -0.000001 -0.000004 0.000010 0.115865 -1.033409 12.793101 0.000000 0.000001 -0.000002 -0.122537 9.697897 1.310569 0.695572 -2.450418 31.689896 0.176455 -1.271101 15.805859 0.000001 -0.000002 0.000002 -0.568087 7.106798 4.105303 0.435121 -1.967340 24.940034 0.261906 -1.541277 19.286844 0.000002 -0.000003 0.000001 -8.414085 -1.159774 -7.809527 0.946326 -2.816018 37.143672 0.177134 -1.273485 15.836132 0.000001 0.000000 0.000003 -88.984538 -6.750957 7.342817 47.519907 9.804120 -4.425909 -8.077172 14.215972 -4.551773 -6.604023 -0.000001 -0.000003 0.000001 0.000002 0.000000 -62.588575 7.392338 -6.544844 62.881221 1.734490 -4.655573 -0.920505 -2.884484 5.465354 -16.539747 -0.000003 -0.000007 -0.000000 0.000000 0.000000 
12.899912 102.002174 -12.721565 52.409933 -7.421317 5.285353 6.348393 -0.275726 -1.699660 14.862673 1.352666 -0.606152 0.000000 0.000000 0.000000 25.397848 1.548555 0.060529 -23.787344 -0.699831 3.812284 -17.607304 6.465522 -4.232230 -0.000003 0.000000 -0.000000 3.282059 -11.154455 -0.322864 0.000000 0.000000 0.000000 -23.304165 -34.650147 -30.083322 0.000007 -41.915918 -0.000004 -7.881258 -8.386928 29.199704 0.699752 -6.020113 19.223941 19.074657 26.512433 -1.026355 3.271083 -0.981153 3.963648 0.000001 -0.000001 0.000001 0.482877 4.482510 -23.672980 0.882613 3.094077 -31.835286 0.339547 1.967240 -19.583713 0.000001 -0.000000 -0.000003 2.472436 8.725375 -25.289518 1.505284 3.921561 -41.985429 0.476275 2.315660 -23.241414 -0.000002 0.000001 -0.000000 3.074906 8.498961 -34.791512 1.107232 3.428967 -35.782043 0.533258 2.443996 -24.613652 -0.000001 -0.000001 0.000000 3.603262 12.761717 -45.581281 0.673754 2.729597 -27.725824 0.090004 1.024041 -10.045309 -0.000000 -0.000000 0.000001 0.383114 31.571566 9.612375 0.000000 0.000000 0.000000 -32.161889 33.923682 14.344975 0.000010 24.743663 -0.000004 0.798879 -3.969767 7.957806 -0.201451 3.035678 -7.196445 8.074855 6.487014 -14.042696 4.071200 15.554724 -37.382103 0.000002 -0.000001 -0.000002 -3.680994 8.703995 18.305334 -0.000005 -0.000002 -0.000001 0.115842 -1.033407 12.793095 0.000000 -0.000000 0.000001 -0.122523 9.697899 1.310509 0.695568 -2.450424 31.689947 0.176457 -1.271104 15.805860 -0.000001 0.000001 0.000002 -0.568077 7.106795 4.105140 0.435122 -1.967356 24.940186 0.261891 -1.541271 19.286841 0.000003 -0.000003 0.000001 -8.414096 -1.159765 -7.809542 0.946320 -2.816012 37.143672 0.177131 -1.273483 15.836145 0.000001 0.000003 0.000001 -86.344957 -6.488947 7.605710 46.157578 9.703743 -4.466699 -7.983857 14.400013 -4.475861 -6.547585 0.000003 0.000001 0.000001 -0.000002 -0.000000 -64.152456 7.523858 -6.816913 62.826218 0.441614 -4.344998 -1.956871 -2.890414 5.302996 -16.374805 0.000003 -0.000002 0.000006 0.000000 0.000000 
12.796776 102.955612 -12.186241 51.076520 -7.803314 5.170470 6.299163 -0.418163 -1.649252 14.751836 1.342869 -0.457021 0.000000 0.000000 0.000000 25.248571 1.564635 0.205128 -23.519838 -0.601492 3.713256 -17.310558 6.769748 -4.222798 -0.000001 0.000000 -0.000000 3.231807 -11.021964 -0.952625 0.000000 0.000000 0.000000 -22.238210 -34.231563 -31.346644 -0.000003 -40.754520 -0.000016 -7.654835 -8.345725 28.070071 0.699756 -6.020121 19.223923 19.074654 26.512433 -1.026337 3.271092 -0.981140 3.963642 -0.000001 0.000001 -0.000000 0.482583 4.482603 -23.672828 0.882616 3.094084 -31.835420 0.339551 1.967249 -19.583711 0.000000 -0.000001 0.000003 2.472630 8.725451 -25.291229 1.505152 3.921414 -41.983721 0.476269 2.315659 -23.241411 0.000001 -0.000001 -0.000000 3.075097 8.499026 -34.793455 1.107119 3.428826 -35.780065 0.533254 2.443970 -24.613664 -0.000000 -0.000001 -0.000000 3.603260 12.761703 -45.581302 0.673758 2.729596 -27.725823 0.089999 1.024020 -10.045315 -0.000000 0.000000 0.000001 0.372575 31.286412 9.795021 0.000000 0.000000 0.000000 -31.370557 33.055138 15.760115 0.000004 24.457938 0.000014 0.679502 -3.567371 9.936550 -0.201459 3.035669 -7.196444 8.074866 6.487002 -14.042692 4.047554 15.560897 -37.376188 0.000003 -0.000001 0.000003 -3.681000 8.704001 18.305346 0.000006 0.000006 0.000011 0.115859 -1.033423 12.793089 0.000002 0.000001 -0.000001 -0.122512 9.697886 1.310447 0.695582 -2.450430 31.690012 0.176456 -1.271099 15.805855 0.000002 -0.000001 -0.000004 -0.568030 7.106814 4.105000 0.435132 -1.967392 24.940320 0.261907 -1.541274 19.286861 -0.000002 -0.000004 -0.000005 -8.414081 -1.159771 -7.809530 0.946321 -2.816019 37.143658 0.177122 -1.273475 15.836135 -0.000005 -0.000003 0.000002 -83.697036 -6.234346 7.951395 44.808025 9.595919 -4.514812 -7.930983 14.539777 -4.388829 -6.482814 0.000007 -0.000001 -0.000000 -0.000002 0.000000 -65.394690 7.429797 -7.145270 62.114539 -1.010191 -4.002506 -3.005415 -2.878757 4.934438 -16.124991 -0.000003 -0.000000 -0.000000 -0.000001 -0.000000 
